# xmcd
# 
# Track frame offsets:
#     150
#     12987
#     24138
#     36114
#     49167
#     59829
#     72525
#     83158
#     93505
#     103431
#     114055
#     125900
#     137946
#     146606
#     158522
#     168085
#     179185
#     190759
#     201143
#     212026
#     225190
#     234663
#     244521
#     251922
#     261710
# 
# Disc length: 3601
# 
# Revision: 1
# Processed by: cddbd v1.5.2PL0 Copyright (c) Steve Scherf et al.
# Submitted via: fre:ac v1.0.17
# 
DISCID=700e0f19
DTITLE=George Jones - 101 - White Lightning: The Best of George Jones [CDOne)
DYEAR=2014
DGENRE=Country
TTITLE0=White Lightning
TTITLE1=Who Shot Sam
TTITLE2=Money To Burn
TTITLE3=Color Of The Blues
TTITLE4=Treasure Of Love
TTITLE5=You're Back Again
TTITLE6=Half As Much
TTITLE7=Why Baby Why
TTITLE8=Seasons Of My Heart
TTITLE9=It's Ok
TTITLE10=Let Him Know
TTITLE11=Play It Cool
TTITLE12=Hold Everything
TTITLE13=Crazy Arms
TTITLE14=Boat Of Life
TTITLE15=You Gotta Be My Baby
TTITLE16=What Am I Worth
TTITLE17=Your Heart Turned Left (And I Was On The Right)
TTITLE18=I'm Ragged But I'm Right
TTITLE19=Yearning (To Kiss You)
TTITLE20=Still Hurtin'
TTITLE21=Sweet Dreams
TTITLE22=Any Old Time
TTITLE23=Yes I Know Why
TTITLE24=Heartbreak Hotel
EXTD=
EXTT0=
EXTT1=
EXTT2=
EXTT3=
EXTT4=
EXTT5=
EXTT6=
EXTT7=
EXTT8=
EXTT9=
EXTT10=
EXTT11=
EXTT12=
EXTT13=
EXTT14=
EXTT15=
EXTT16=
EXTT17=
EXTT18=
EXTT19=
EXTT20=
EXTT21=
EXTT22=
EXTT23=
EXTT24=
PLAYORDER=
